<?xml version="1.0" encoding="UTF-8"?>
<svg id="Capa_2" data-name="Capa 2" xmlns="http://www.w3.org/2000/svg" xmlns:xlink="http://www.w3.org/1999/xlink" viewBox="0 0 810.78 226.43">
  <defs>
    <style>
      .cls-1 {
        letter-spacing: -.01em;
      }

      .cls-2 {
        fill: url(#Degradado_sin_nombre_25-7);
      }

      .cls-3 {
        letter-spacing: 0em;
      }

      .cls-4 {
        letter-spacing: 0em;
      }

      .cls-5 {
        fill: url(#Degradado_sin_nombre_25-5);
      }

      .cls-6 {
        letter-spacing: 0em;
      }

      .cls-7 {
        fill: url(#Degradado_sin_nombre_25-4);
      }

      .cls-8 {
        fill: url(#Degradado_sin_nombre_25);
      }

      .cls-9 {
        letter-spacing: 0em;
      }

      .cls-10 {
        letter-spacing: -.02em;
      }

      .cls-11 {
        letter-spacing: -.01em;
      }

      .cls-12 {
        letter-spacing: -.02em;
      }

      .cls-13 {
        fill: url(#Degradado_sin_nombre_25-6);
      }

      .cls-14 {
        letter-spacing: -.01em;
      }

      .cls-15 {
        fill: #fff;
        font-family: Lato-ThinItalic, Lato;
        font-size: 34.38px;
        font-style: italic;
        font-weight: 200;
      }

      .cls-16 {
        fill: url(#Degradado_sin_nombre_25-2);
      }

      .cls-17 {
        letter-spacing: 0em;
      }

      .cls-18 {
        fill: url(#Degradado_sin_nombre_25-3);
      }

      .cls-19 {
        letter-spacing: -.04em;
      }

      .cls-20 {
        fill: url(#Degradado_sin_nombre_25-8);
      }
    </style>
    <linearGradient id="Degradado_sin_nombre_25" data-name="Degradado sin nombre 25" x1="0" y1="108.73" x2="229.97" y2="108.73" gradientUnits="userSpaceOnUse">
      <stop offset="0" stop-color="#f9f9f9"/>
      <stop offset=".23" stop-color="#f3f3f3"/>
      <stop offset=".67" stop-color="#bcbdbf"/>
      <stop offset=".9" stop-color="#a4a5a7"/>
      <stop offset="1" stop-color="#a4a5a7"/>
    </linearGradient>
    <linearGradient id="Degradado_sin_nombre_25-2" data-name="Degradado sin nombre 25" x1="204.64" y1="125.44" x2="311.75" y2="125.44" xlink:href="#Degradado_sin_nombre_25"/>
    <linearGradient id="Degradado_sin_nombre_25-3" data-name="Degradado sin nombre 25" x1="291.31" y1="90.98" x2="405.36" y2="90.98" xlink:href="#Degradado_sin_nombre_25"/>
    <linearGradient id="Degradado_sin_nombre_25-4" data-name="Degradado sin nombre 25" x1="390.9" y1="124.93" x2="480.84" y2="124.93" xlink:href="#Degradado_sin_nombre_25"/>
    <linearGradient id="Degradado_sin_nombre_25-5" data-name="Degradado sin nombre 25" x1="466.18" y1="116.33" x2="531.91" y2="116.33" xlink:href="#Degradado_sin_nombre_25"/>
    <linearGradient id="Degradado_sin_nombre_25-6" data-name="Degradado sin nombre 25" x1="520.58" y1="129.17" x2="596.65" y2="129.17" xlink:href="#Degradado_sin_nombre_25"/>
    <linearGradient id="Degradado_sin_nombre_25-7" data-name="Degradado sin nombre 25" x1="588.21" y1="92.42" x2="666.51" y2="92.42" xlink:href="#Degradado_sin_nombre_25"/>
    <linearGradient id="Degradado_sin_nombre_25-8" data-name="Degradado sin nombre 25" x1="651.45" y1="125.44" x2="748.04" y2="125.44" xlink:href="#Degradado_sin_nombre_25"/>
  </defs>
  <g id="Capa_1-2" data-name="Capa 1">
    <g>
      <text class="cls-15" transform="translate(180.32 217.46)"><tspan class="cls-9" x="0" y="0">L</tspan><tspan class="cls-17" x="15.87" y="0">i</tspan><tspan class="cls-4" x="22.83" y="0">c</tspan><tspan x="38.24" y="0">enciada en </tspan><tspan class="cls-11" x="197.09" y="0">C</tspan><tspan x="218.42" y="0">omuni</tspan><tspan class="cls-6" x="304.64" y="0">c</tspan><tspan x="320.13" y="0">ación</tspan><tspan class="cls-12" x="394.74" y="0"> </tspan><tspan class="cls-10" x="402.93" y="0">y</tspan><tspan x="417.9" y="0"> </tspan><tspan class="cls-14" x="426.89" y="0">D</tspan><tspan x="450.79" y="0">iseño </tspan><tspan class="cls-1" x="531.14" y="0">G</tspan><tspan class="cls-19" x="554.35" y="0">r</tspan><tspan x="564.01" y="0">áfi</tspan><tspan class="cls-3" x="597.5" y="0">c</tspan><tspan x="612.91" y="0">o</tspan></text>
      <g>
        <path class="cls-8" d="M138.62,200.68c0-19.18,6.92-46.21,7.46-47.27-34.36,29.83-66.71,47.81-95.48,47.81-16.65,0-32.62-3.06-43.55-17.71-5.06-6.66-7.06-14.51-7.06-22.9C0,97.61,96.54,0,168.85,0c10.39,0,20.37,2.66,28.9,8.92,10.39,7.46,14.25,16.65,14.25,26.1s-4,19.04-8.52,28.9c-2.66,5.86-9.19,15.18-11.72,15.85-2.26.67-8.26-1.33-8.26-3.33,0-1.73,3.6-2.4,4.26-3.46,5.99-7.99,14.91-26.63,14.91-40.35,0-6.12-1.86-12.38-6.79-18.64-6.26-7.19-14.38-9.72-23.17-9.72C115.45,4.26,10.92,91.62,9.72,164.06c-.27,17.18,14.38,32.09,37.29,33.02,26.37.93,57.13-18.64,79.23-36.75,11.45-9.32,21.04-20.91,30.63-32.36l6.52-7.99c-1.2,0-5.33.8-8.92.93,1.2-1.07,3.06-.93,4.53-1.86-61.26,5.99-76.44,16.91-82.56,16.91-1.47,0-4.66-1.07-2.4-2.8,10.65-7.99,83.63-19.58,94.15-20.37,1.6-1.47,2.13-4,6.26-4,3.2,0,5.06,1.6,5.59,2.53,14.65-1.2,26.1-3.06,35.42-3.06,4.93,0,8.79.4,11.19,1.33,2.4,1.2,3.33,2,3.33,2.53,0,.8-2.26,1.07-4.93,1.07s-5.46-.13-6.52-.13c-11.72,0-34.62,3.2-42.88,4.66-15.45,19.31-22.77,37.55-28.1,58.86-2.8,10.92-5.59,22.5-5.59,31.69,0,2.53-.13,4.79.67,6.92.93,2.26.27,3.33-1.2.8-2-3.33-2.8-8.92-2.8-15.31Z"/>
        <path class="cls-16" d="M207.03,142.62c-2.13-1.33-2.4-3.86-2.4-5.99,0-12.25,19.71-31.16,35.02-30.89,3.73,0,7.86.93,10.39,2.8-.4-2.26.8-2.8,2.26-2.8,1.73.13,3.33.8,4.79,1.73.93.67,1.33,1.6,1.47,2.66.4,5.99,2.93,15.05,5.73,19.58,2,3.46,5.19,5.06,9.46,5.06,10.65,0,24.9-8.92,33.69-15.71,1.07-.8,2.26-1.87,3.46-2.8.27-.13.4-.27.67-.13.4.27,0,.53,0,.67-.67,1.6-1.73,2.93-2.8,4.13-2.4,2.8-5.46,5.19-8.52,7.32-7.72,4.93-17.58,9.59-25.3,9.59-5.99,0-11.19-2.13-16.38-6.53-3.86-3.33-6.39-10.92-8.12-16.91-9.85,12.12-16.38,18.64-24.5,25.57-2,1.6-4.26,2.93-6.52,3.99-1.73.8-3.33,1.2-4.93,1.2-2.53,0-5.06-.93-7.46-2.53ZM235.13,125.44c4.53-4,8.66-8.92,12.92-13.58-1.07-1.33-2.4-2.4-4.8-2.26-11.05.4-30.09,21.17-30.09,29.03,0,2,1.6,1.73,2.53,1.33,7.86-3.2,14.38-9.99,19.44-14.51Z"/>
        <path class="cls-18" d="M291.31,162.99c0-.4,0-.93.13-1.33,7.99-39.15,70.18-147.68,99.21-147.68,1.87,0,4,2,4,4.66,0,8.52-37.69,45.68-52.87,57.13-12.78,21.17-26.37,47.54-38.35,77.64,12.25-18.11,38.75-54.07,59.66-54.07,5.06,0,11.32,5.19,11.32,11.05,0,3.06-.53,6.26-1.47,9.46,4.13-.93,8.12-1.73,11.59-2.26,15.45-2.66,27.3-2,16.91-.67-7.86,1.2-18.51,3.06-29.43,5.72-6.53,17.98-25.17,35.69-41.02,35.69-2.26,0-9.59-3.6-9.59-9.06,0-12.65,21.44-21.7,41.68-27.03,2.8-5.33,4.66-10.52,4.66-14.52,0-2.4-1.73-4.93-5.86-4.93-22.5,0-59.12,59.39-63.25,64.58-1.47,1.73-7.32-.53-7.32-4.39ZM361.09,125.71c-18.24,5.33-34.09,13.18-34.09,23.7v.67c0,1.33.67,2.66,2.8,2.66,8.92,0,23.04-13.72,31.29-27.03ZM390.78,18.64c0-.53,0-1.73-1.07-1.73-4.93,0-22.51,18.51-42.75,50.47,15.71-14.51,43.81-43.41,43.81-48.74Z"/>
        <path class="cls-7" d="M390.9,141.82c0-.4,0-.93.13-1.33,1.6-9.72,8.92-24.63,13.05-31.43,1.47-2.4,7.46-1.73,9.19-.13.8.67.8,1.33.4,2.13-.8,1.07-1.6,2.66-2.13,3.6-2.4,4-5.73,11.85-8.92,21.04,3.06-3.46,6.39-6.92,9.19-10.39,5.73-6.92,11.32-13.71,16.91-20.64,2.13-2.53,5.86-2.66,7.99,0,4.13,5.19,5.19,7.59,8.12,11.19,2.66,3.2,7.06,4.53,12.52,4.66,6.79.13,13.98,0,21.97-2.66.27,0,.67-.13,1.07-.13.13,0,.27.13.4.13.13.27,0,.4-.13.53-1.33,1.2-2.93,2-4.66,2.53-4.13,1.47-14.12,3.73-19.31,3.6-6.39-.13-13.18-3.2-19.04-8.39-1.86-1.73-3.6-3.6-5.33-5.46-1.07-1.33-2.8.13-3.99,1.46-1.6,1.6-11.19,12.92-15.18,17.58-3.33,3.73-10.52,12.92-13.58,15.98-.93.8-1.47,1.46-2.66,1.46-1.73,0-5.99-2.93-5.99-5.33Z"/>
        <path class="cls-5" d="M466.39,134.89c1.2-6.66,4.13-12.52,8.52-17.84,1.73-2.26,7.46-1.73,9.19-.13.8.67.8,1.33.4,2.13-.8,1.07-1.47,2.13-2.13,3.06-2.8,4.13-5.06,8.39-6.66,13.05-.67,2-1.07,4.13-.8,6.26.4,3.2,1.86,3.99,5.06,3.86,7.06-.4,35.29-14.65,47.81-22.64.8-.53,1.6-1.2,2.4-1.6.53-.4.8-1.33,1.73-.93-.4.4-.67.93-1.2,1.33-2.66,2.66-5.73,4.66-8.79,6.79-9.59,6.12-19.58,12.65-29.69,17.58-3.73,1.73-7.46,3.46-11.59,3.33-6.39-.13-15.98-4.26-14.25-14.25ZM482.24,105.07c2.66-4.53,5.99-13.05,7.19-19.58.4-1.6.8-2.26,2.53-1.86,2.4.53,5.33,3.06,4.93,6.79-.27,3.59-7.19,12.65-12.65,15.58-2,.93-3.06.93-2-.93Z"/>
        <path class="cls-13" d="M520.58,135.43c0-6.92,3.73-15.05,12.92-23.3,4.79-3.73,11.32-7.59,17.84-7.46,3.86.13,8.92,2.26,8.92,6.26,0,1.07-.27,2.26-1.07,3.46-3.99,6.26-17.18,13.98-28.76,17.58-.93,2.26-1.46,4.79-1.46,7.32,0,6.12,3.46,11.58,12.65,10.92,10.92-.53,31.03-13.72,52.73-27.03,1.07-.67,3.06-1.33,2-.27-2.53,2.53-37.42,31.16-56.19,30.76-11.19-.67-19.58-7.99-19.58-18.24ZM551.87,115.59c1.6-1.47,3.06-3.99,3.06-5.73,0-.93-.53-1.46-1.6-1.46s-2.66.4-4.93,1.73c-7.32,3.73-12.38,10.12-16.38,17.44,6.92-3.2,14.11-6.53,19.84-11.99Z"/>
        <path class="cls-2" d="M588.21,131.3c0-21.97,52.33-98.27,72.71-98.27,2.26,0,5.59,1.33,5.59,3.86,0,15.18-53.27,64.45-61.26,72.31-3.2,6.52-6.26,13.05-8.12,20.11-2.66,11.19-1.07,19.97,9.72,19.97,13.98,0,38.75-17.58,52.47-28.76,4.53-3.73,7.06-5.06,7.06-4.39,0,.4-.93,1.6-2.93,3.46-13.85,13.18-37.68,32.23-56.86,32.23-10.52,0-18.38-7.46-18.38-20.51ZM661.06,41.81c3.46-6.39-.13-6.66-4.39-2.53-6.13,5.99-14.78,16.11-21.71,24.77-9.06,11.32-17.44,22.64-24.37,35.29,28.23-26.77,42.48-43.01,50.47-57.53Z"/>
        <path class="cls-20" d="M653.85,142.62c-2.13-1.33-2.4-3.86-2.4-5.99,0-2.66.93-5.19,2-7.59,2.13-4.39,5.06-8.39,8.66-11.72,5.86-5.33,15.98-11.72,24.37-11.59,3.73,0,7.86.93,10.39,2.8-.4-2.26.8-2.8,2.26-2.8,1.73.13,3.33.8,4.79,1.73.93.67,1.33,1.6,1.47,2.66.4,5.99,2.93,15.05,5.73,19.58,2,3.46,5.19,5.06,9.46,5.06,7.99,0,17.31-5.33,23.17-9.72,1.07-.8,2.26-1.87,3.46-2.8.27-.13.4-.27.67-.13.4.27,0,.53,0,.67-.67,1.6-1.73,2.93-2.8,4.13-4.13,4.66-15.18,10.92-23.3,10.92-5.99,0-11.19-2.13-16.38-6.53-3.86-3.33-6.39-10.92-8.12-16.91-9.85,12.12-16.38,18.64-24.5,25.57-2,1.6-4.26,2.93-6.52,3.99-1.73.8-3.33,1.2-4.93,1.2-2.53,0-5.06-.93-7.46-2.53ZM681.95,125.44c4.53-4,7.19-7.72,11.45-12.39-1.07-1.33-2.4-2.4-4.79-2.26-7.86.27-20.77,11.59-26.1,21.57-1.6,3.06-2.26,5.86-2.26,7.06s1.33.93,2.26.53c7.86-3.2,14.38-9.99,19.44-14.51Z"/>
      </g>
    </g>
  </g>
</svg>