<?xml version="1.0" encoding="UTF-8"?>
<svg id="Capa_2" data-name="Capa 2" xmlns="http://www.w3.org/2000/svg" viewBox="0 0 44.08 50.13">
  <defs>
    <style>
      .cls-1 {
        fill: #101051;
      }

      .cls-2 {
        fill: #060630;
      }
    </style>
  </defs>
  <g id="Capa_1-2" data-name="Capa 1">
    <g>
      <path class="cls-1" d="M27.34,0c1.8,1.63,2.58,4.08,2.74,6.47-.27-.23-1.33-.73-1.67-.78-.08-1.04-.48-2.42-1.05-3.3-.05-.07-.07-.28-.22-.13-.07.07-.52,1.67-.58,1.92-.14.52-.28,1.06-.3,1.61-.41.07-1.17.26-1.57.39.05-1.22.37-2.45.76-3.6.28-.85.64-1.97,1.3-2.57h.59Z"/>
      <path class="cls-1" d="M17.44,0c.62.67,1.01,1.78,1.3,2.67.37,1.14.63,2.31.76,3.5-.36-.12-1.2-.33-1.57-.39-.02-.39-.82-3.53-1.03-3.53-.7,1.02-.99,2.23-1.22,3.43-.38.05-1.29.44-1.57.69.11-2.33.93-4.82,2.74-6.37h.59Z"/>
      <path class="cls-1" d="M19.3,20.48h9.9c3.85,6.71,8.23,13.2,13.47,18.91.2.21,1.4,1.33,1.42,1.43.03.17-.56.54-.71.65-1.04.77-2.18,1.4-3.3,2.04-4.32-5.67-8.29-11.58-12.2-17.54.72,1.87,1.63,3.7,2.55,5.49,2.37,4.6,4.95,8.76,7.99,12.93.13.17.57.71.48.87-.08.14-2.51,1.42-2.86,1.6-9.31,4.59-20.61,4.44-29.59-.92-.16-.1-1.1-.62-1.13-.68-.08-.14.27-.72.38-.87,2.64-3.65,4.85-6.98,7.01-10.97s4.42-8.45,5.73-12.84v-.1h.88ZM27.78,25.77v.1c.06-.03.06-.07,0-.1Z"/>
      <path class="cls-1" d="M28.41,5.68c.34.05,1.4.55,1.67.78.29.25.86,1.12.85,1.5-.69,2.95-1.61,5.93-1.73,8.98h-9.8c.03-.19.1-.32.09-.52-.09-1.56-2.02-3.38-2.72-4.83-.95-1.98-.81-4.03.47-5.81.22.02.48-.03.69,0,.37.06,1.21.27,1.57.39.52.17,2.22,1.13,2.51,1.15.15.01,2.26-1.02,2.68-1.15.4-.13,1.16-.32,1.57-.39.57-.1,1.6-.18,2.16-.1Z"/>
      <path class="cls-1" d="M18.32,20.48l.1.1c-1.31,4.39-3.54,8.79-5.73,12.84s-4.37,7.32-7.01,10.97c-1.99-.98-3.91-2.14-5.68-3.48,5.84-6.11,10.79-13.05,14.89-20.43h3.43Z"/>
      <path class="cls-1" d="M15.68,5.68c.53-.06,1.07.05,1.57.1-1.29,1.78-1.43,3.83-.47,5.81.7,1.45,2.63,3.28,2.72,4.83.01.2-.07.34-.09.52h9.8c-.05,1.17.04,2.36,0,3.53h-9.9v-3.53h-4.31v3.53h-.1c.32-4.31-.59-8.37-1.67-12.5,0-.42.58-1.34.89-1.61.28-.25,1.19-.64,1.57-.69Z"/>
      <path class="cls-2" d="M40.07,43.5c-.54.31-1.05.72-1.67.88-3.04-4.17-5.62-8.33-7.99-12.93-.92-1.79-1.83-3.62-2.55-5.49,3.91,5.95,7.88,11.87,12.2,17.54Z"/>
      <polygon class="cls-1" points="14.99 20.48 14.99 16.95 19.3 16.95 19.3 20.48 18.42 20.48 18.32 20.48 14.99 20.48"/>
      <polygon class="cls-1" points="18.42 20.58 18.32 20.48 18.42 20.48 18.42 20.58"/>
      <path class="cls-1" d="M27.78,25.77c.06.03.06.07,0,.1v-.1Z"/>
    </g>
  </g>
</svg>