<?xml version="1.0" encoding="UTF-8"?>
<svg id="Capa_2" data-name="Capa 2" xmlns="http://www.w3.org/2000/svg" xmlns:xlink="http://www.w3.org/1999/xlink" viewBox="0 0 186.24 191.02">
  <defs>
    <style>
      .cls-1 {
        fill: url(#Degradado_sin_nombre_25);
      }

      .cls-2 {
        fill: url(#Degradado_sin_nombre_25-2);
      }

      .cls-3 {
        fill: url(#Degradado_sin_nombre_25-3);
      }
    </style>
    <linearGradient id="Degradado_sin_nombre_25" data-name="Degradado sin nombre 25" x1="127.46" y1="40.18" x2="186.24" y2="40.18" gradientUnits="userSpaceOnUse">
      <stop offset="0" stop-color="#f9f9f9"/>
      <stop offset=".23" stop-color="#f3f3f3"/>
      <stop offset=".67" stop-color="#bcbdbf"/>
      <stop offset=".9" stop-color="#a4a5a7"/>
      <stop offset="1" stop-color="#a4a5a7"/>
    </linearGradient>
    <linearGradient id="Degradado_sin_nombre_25-2" data-name="Degradado sin nombre 25" x1="0" y1="161.7" x2="58.77" y2="161.7" xlink:href="#Degradado_sin_nombre_25"/>
    <linearGradient id="Degradado_sin_nombre_25-3" data-name="Degradado sin nombre 25" x1="7.84" y1="85.1" x2="178.08" y2="85.1" xlink:href="#Degradado_sin_nombre_25"/>
  </defs>
  <g id="Capa_1-2" data-name="Capa 1">
    <g>
      <polygon class="cls-1" points="156.91 10.85 158.62 37.01 178.2 18.76 159.95 38.35 186.24 40.23 159.95 42 169.32 52.71 158.62 43.34 156.73 69.5 154.96 43.34 135.25 61.71 153.63 42 127.46 40.11 153.75 38.35 144.13 27.52 154.96 37.01 156.91 10.85"/>
      <polygon class="cls-2" points="29.45 132.37 31.15 158.54 50.74 140.28 32.49 159.87 58.77 161.76 32.49 163.52 41.86 174.23 31.15 164.86 29.27 191.02 27.5 164.86 7.79 183.24 26.16 163.53 0 161.64 26.28 159.87 16.67 149.05 27.5 158.53 29.45 132.37"/>
      <path class="cls-3" d="M92.22.54c-.55,13.15-1,26.72-3.01,39.72-4.55,29.46-14.91,37.81-44.01,41.81-12.35,1.7-24.91,2.01-37.33,2.82-.25.86.79.53,1.29.55,12.85.54,25.91,1.02,38.62,3.01,29.47,4.61,37.8,14.84,41.81,44.01,1.71,12.47,2.02,25.15,2.82,37.7.86.25.53-.79.55-1.29.6-14.37,1.09-29.92,3.85-44.03,4.05-20.69,11.66-30.14,32.54-34.86,15.8-3.57,32.56-3.65,48.69-4.72.25-.86-.79-.53-1.29-.55-18.24-.76-50.55-1.15-65.5-11.85-13-9.3-15.4-30.23-16.82-45.06-.88-9.22-1.2-18.56-1.48-27.8l-.74.54Z"/>
    </g>
  </g>
</svg>