<?xml version="1.0" encoding="UTF-8"?>
<svg id="Capa_2" data-name="Capa 2" xmlns="http://www.w3.org/2000/svg" xmlns:xlink="http://www.w3.org/1999/xlink" viewBox="0 0 217.23 224.22">
  <defs>
    <style>
      .cls-1 {
        fill: url(#Degradado_sin_nombre_25);
      }

      .cls-2 {
        fill: url(#Degradado_sin_nombre_25-2);
      }

      .cls-3 {
        fill: url(#Degradado_sin_nombre_25-3);
      }
    </style>
    <linearGradient id="Degradado_sin_nombre_25" data-name="Degradado sin nombre 25" x1="57.58" y1="144.41" x2="217.23" y2="144.41" gradientUnits="userSpaceOnUse">
      <stop offset="0" stop-color="#f9f9f9"/>
      <stop offset=".23" stop-color="#f3f3f3"/>
      <stop offset=".67" stop-color="#bcbdbf"/>
      <stop offset=".9" stop-color="#a4a5a7"/>
      <stop offset="1" stop-color="#a4a5a7"/>
    </linearGradient>
    <linearGradient id="Degradado_sin_nombre_25-2" data-name="Degradado sin nombre 25" x1="66.6" y1="29.24" x2="125.1" y2="29.24" xlink:href="#Degradado_sin_nombre_25"/>
    <linearGradient id="Degradado_sin_nombre_25-3" data-name="Degradado sin nombre 25" x1="0" y1="92.74" x2="34.78" y2="92.74" xlink:href="#Degradado_sin_nombre_25"/>
  </defs>
  <g id="Capa_1-2" data-name="Capa 1">
    <g>
      <path class="cls-1" d="M136.72,65.12c-.52,12.34-.94,25.06-2.82,37.25-4.27,27.63-13.98,35.46-41.27,39.21-11.58,1.59-23.36,1.88-35.01,2.64-.23.8.74.5,1.21.51,12.05.5,24.3.96,36.21,2.82,27.64,4.32,35.45,13.92,39.21,41.27,1.61,11.69,1.89,23.59,2.64,35.36.8.23.5-.74.51-1.21.56-13.48,1.02-28.06,3.61-41.29,3.8-19.4,10.94-28.27,30.52-32.69,14.82-3.35,30.54-3.42,45.66-4.43.23-.8-.74-.5-1.21-.51-17.1-.71-47.4-1.08-61.43-11.11-12.19-8.72-14.45-28.35-15.77-42.26-.83-8.64-1.12-17.41-1.39-26.08l-.69.51Z"/>
      <path class="cls-2" d="M95.6.19c-.19,4.52-.34,9.18-1.03,13.65-1.56,10.12-5.12,12.99-15.12,14.37-4.24.58-8.56.69-12.83.97-.08.29.27.18.44.19,4.42.18,8.9.35,13.27,1.03,10.13,1.58,12.99,5.1,14.37,15.12.59,4.28.69,8.64.97,12.96.29.08.18-.27.19-.44.21-4.94.38-10.28,1.32-15.13,1.39-7.11,4.01-10.36,11.18-11.98,5.43-1.23,11.19-1.25,16.73-1.62.08-.29-.27-.18-.44-.19-6.27-.26-17.37-.4-22.51-4.07-4.47-3.19-5.29-10.39-5.78-15.48-.3-3.17-.41-6.38-.51-9.55l-.25.19Z"/>
      <path class="cls-3" d="M17.24,75.46c-.11,2.69-.2,5.46-.61,8.12-.93,6.02-3.05,7.73-8.99,8.54-2.52.35-5.09.41-7.63.58-.05.17.16.11.26.11,2.63.11,5.29.21,7.89.61,6.02.94,7.72,3.03,8.54,8.99.35,2.55.41,5.14.58,7.7.17.05.11-.16.11-.26.12-2.94.22-6.11.79-9,.83-4.23,2.38-6.16,6.65-7.12,3.23-.73,6.65-.75,9.95-.96.05-.17-.16-.11-.26-.11-3.73-.16-10.33-.24-13.38-2.42-2.66-1.9-3.15-6.18-3.44-9.21-.18-1.88-.24-3.79-.3-5.68l-.15.11Z"/>
    </g>
  </g>
</svg>